<?xml version="1.0" encoding="utf-8"?>
<!-- Generator: Adobe Illustrator 23.0.1, SVG Export Plug-In . SVG Version: 6.00 Build 0)  -->
<svg version="1.1" id="Layer_1" xmlns="http://www.w3.org/2000/svg" xmlns:xlink="http://www.w3.org/1999/xlink" x="0px" y="0px"
	 viewBox="0 0 292.8 160.5" style="enable-background:new 0 0 292.8 160.5;" xml:space="preserve">
<style type="text/css">
	.st0{fill:#FFFFFF;}
	.st1{fill:#070707;}
</style>
<g>
	<path id="Path_310" class="st0" d="M0,107.8c2.1,1.4,4,3.2,6,4.8c7.2,5.9,14.3,11.8,21.5,17.7c0.2,0.1,0.4,0.2,0.5,0.4
		c0.3-0.3,0.1-0.6,0.1-0.9c0-6.3,0.1-12.5,0-18.8c-0.2-19.7,0-39.4-0.1-59.1c0-1.1,0.3-1.4,1.4-1.4c3.9,0.1,7.9,0.1,11.8,0
		c0.9,0,1.2,0.2,1.2,1.2c-0.1,7.1,0,14.3,0,21.4c0,0.9,0.2,1.1,1.1,1.1c6.3,0,12.6,0,18.9,0c1,0,1.1-0.3,1.1-1.2
		c0.1-23-0.3-46-0.7-69.1c0-1.3,0-2.6,0-3.9H63c1.7,1.7,3.4,3.2,5.3,4.6c5,4.3,10,8.5,15,12.7c6,5,11.9,10.1,17.9,15.1
		c1.4,1.2,2.8,2.4,4.3,3.6c0.3,0.2,0.5,0.6,0.5,1c0,5.2,0,10.3,0,15.8L77.6,29.6v1.1c0,6.3-0.1,12.5,0,18.8
		c0.3,19.7,0,39.4,0.2,59.1c0,1-0.2,1.3-1.3,1.3c-4-0.1-7.9-0.1-11.9,0c-0.9,0-1.2-0.2-1.2-1.1c0-7.5,0-15,0-22.5
		c0-1-0.2-1.3-1.3-1.3c-6.2,0.1-12.5,0.1-18.7,0c-0.9,0-1.1,0.3-1.1,1.1c-0.1,23.2,0.2,46.4,0.7,69.6c0,1.6,0,3.1,0,4.7h-0.2
		c-1.9-0.7-3.2-2.3-4.7-3.5c-3.7-3.1-7.3-6.2-11-9.3c-3.1-2.6-6.2-5.3-9.3-7.9c-3-2.5-6-5-8.9-7.5c-2.6-2.2-5.3-4.5-7.9-6.7
		c-0.4-0.4-0.8-0.9-1-1.4L0,107.8z"/>
	<path id="Path_311" class="st1" d="M292.8,109.8c-4,1.3-8.4,1.4-12.5,0.3c-4-1.2-6.2-4.1-7-8.2c-0.3-1.9-0.5-3.8-0.5-5.8
		c0-6.7,0-13.4,0-20.1c0-1.5,0-1.5-1.5-1.5c-1.2,0-2.4,0-3.6,0c-0.9,0-1.2-0.2-1.2-1.2c0.1-2.1,0-4.3,0-6.4c0-0.8,0.3-1.2,1.1-1.2
		c1.4,0.1,2.8,0,4.2,0c0.8,0,1.1-0.3,1.1-1.1c0-2.9,0-5.8,0-8.6c0-1,0.3-1.3,1.3-1.2c3.1,0,6.2,0.1,9.3,0c1,0,1.3,0.4,1.3,1.3
		c0,2.8,0,5.6,0,8.4c0,0.9,0.3,1.2,1.2,1.2c1.8-0.1,3.6,0,5.4,0c0.9,0,1.2,0.3,1.1,1.2c0,2.1,0,4.3,0,6.4c0,0.9-0.3,1.2-1.2,1.2
		c-1.8,0-3.6,0-5.4,0c-0.8,0-1.1,0.3-1.1,1.1c0,7.1,0,14.3,0,21.4c0,2.9,1.4,4.2,4.3,4.2c1.3,0,2.5-0.1,3.8-0.2L292.8,109.8z"/>
	<path id="Path_314" class="st1" d="M257.2,79.2c-1.6,0-3.2,0-4.8,0c-0.7,0-1-0.2-1.1-0.9c-0.6-3.2-2.7-4.9-6-5
		c-2.2-0.1-4.3,0.1-5.9,1.9c-1.5,1.7-1.4,4.2,0.3,5.7c0.1,0.1,0.2,0.2,0.3,0.2c2.1,1.4,4.5,1.8,6.9,2.4c3.6,0.8,7.3,1.6,10.5,3.6
		c3.4,1.9,5.6,5.4,5.8,9.3c0.4,6.2-3.4,10.5-8.5,12.5c-7.1,2.8-14.2,2.8-21-0.7c-4.1-1.9-7-5.7-7.8-10.1c-0.1-0.3-0.1-0.6-0.1-0.9
		c-0.1-0.9,0.3-1.3,1.2-1.3c2.9,0.1,5.8,0,8.7,0c0.8,0,1.1,0.2,1.2,1.1c0.1,1.8,1.2,3.4,2.8,4.2c3.3,1.7,6.8,2,10.1,0
		c1.9-1,2.5-3.4,1.5-5.3c-0.3-0.6-0.8-1.1-1.4-1.4c-2-1.2-4.2-2-6.6-2.3c-3.7-0.7-7.3-2-10.6-3.8c-8.2-5-6.6-14.9-1.1-19.3
		c4.7-3.7,10.1-4.6,15.8-4.1c2.3,0.1,4.6,0.7,6.8,1.6c5.1,2.2,8.3,5.8,8.9,11.4c0.1,0.8-0.2,1.1-0.9,1.1
		C260.5,79.2,258.8,79.2,257.2,79.2z"/>
	<path id="Path_315" class="st1" d="M195.9,78.6c0,9.9,0,19.9,0,29.8c0,1.6,0,1.6-1.6,1.6c-3,0-6,0-9,0c-0.9,0-1.3-0.2-1.3-1.2
		c0-20.1,0-40.2,0-60.3c0-1,0.3-1.3,1.3-1.3c3.1,0,6.2,0.1,9.3,0c1,0,1.3,0.4,1.3,1.3C195.9,58.6,195.9,68.6,195.9,78.6z"/>
	<path id="Path_316" class="st1" d="M218.3,88c0,6.8,0,13.6,0,20.4c0,1.6,0,1.6-1.5,1.6c-3,0-6,0-9.1,0c-0.9,0-1.2-0.3-1.2-1.2
		c0-13.9,0-27.9,0-41.8c0-0.9,0.4-1.2,1.2-1.2c3.1,0,6.1,0.1,9.2,0c1.1,0,1.4,0.3,1.4,1.4C218.2,74.1,218.3,81.1,218.3,88z"/>
	<path id="Path_317" class="st1" d="M211.9,60.6c-2.1-0.1-4.3-0.8-5.6-3.4c-1.5-3-0.4-6.7,2.6-8.2c0.8-0.4,1.7-0.7,2.6-0.7
		c2.4-0.1,4.7,0.4,6.2,2.5c1.4,1.9,1.5,4.4,0.4,6.5C217.3,59.3,214.9,60.6,211.9,60.6z"/>
	<g>
		<path class="st0" d="M174,84.6c-0.1-3.1-0.8-6.2-1.9-9.1c-3.4-8.9-11.2-11.8-19-10.1c-2.4,0.6-4.6,1.9-6.2,3.8V68
			c0-6.6,0-13.2,0-19.8c0-0.8-0.2-1-1-1c-3.8,0-7.7,0.1-11.5,0c-1,0-1.4,0.2-1.4,1.3c0.1,11.7,0,23.4,0,35.1V109c0,0.5-0.2,1,0.8,1
			c3.6-0.1,7.2,0,10.8,0c0.7,0,0.8-0.3,0.9-0.9c0.1-1.1,0.3-2.2,0.4-3.1c0.6,0.5,1.3,1,2,1.6c4,3.5,8.7,3.9,13.6,2.7
			c5.5-1.4,8.8-5.2,10.7-10.4C174.1,95,174.3,89.8,174,84.6z M159.6,95.3c-0.3,2.6-2.5,4.6-5.1,4.8c-2.8,0.3-5.4-0.2-7.2-2.8
			c-0.3-0.4-0.4-0.9-0.4-1.3c0-2.7,0-5.4,0-8.1c0-2.4,0.1-4.7,0-7.1c-0.1-1.8,0.9-3.5,2.6-4.2c4.6-2.5,9.1-0.3,10.2,5.1
			C160.6,86.1,160.6,90.8,159.6,95.3z"/>
		<path class="st0" d="M115.2,66.8c-4-1.7-8.5-2.3-12.8-1.7c-7.3,0.9-12.8,4.4-15.7,11.1c-3.1,7-3.3,14.9-0.5,22.1
			c1.9,5.4,6.3,9.6,11.7,11.3c3.6,1.2,7.4,1.5,11.1,1c5.6-0.5,10.7-3.4,13.9-8c3.1-4.4,4.1-9.4,4-15.5c0-2.2-0.2-4.4-0.7-6.5
			C124.7,74.4,121.2,69.5,115.2,66.8z M112.2,95.5c-1.2,3.6-5.1,5.6-8.7,4.4c-0.7-0.2-1.4-0.6-1.9-1c-1.7-1.3-2.7-3.3-2.9-5.4
			c-0.7-4.3-0.8-8.6,0.5-12.8c1-3.6,4.8-5.7,8.4-4.7c0.8,0.2,1.6,0.6,2.3,1.1c2,1.5,2.6,3.8,3,6.1c0.2,1.6,0.3,3.2,0.4,4.8
			C113.3,90.5,112.9,93,112.2,95.5z"/>
	</g>
</g>
</svg>
