<svg xmlns="http://www.w3.org/2000/svg" viewBox="0 0 292.9 160.4"><title>fffffAsset 2@4xxx</title><path d="M0,107.8c2.1,1.4,4,3.2,6,4.8,7.2,5.9,14.3,11.8,21.5,17.7a1,1,0,0,1,.5.4c.3-.3.1-.6.1-.9,0-6.3.1-12.5,0-18.8-.2-19.7,0-39.4-.1-59.1,0-1.1.3-1.4,1.4-1.4,3.9.1,7.9.1,11.8,0,.9,0,1.2.2,1.2,1.2-.1,7.1,0,14.3,0,21.4,0,.9.2,1.1,1.1,1.1H62.4c1,0,1.1-.3,1.1-1.2.1-23-.3-46-.7-69.1V0H63a46,46,0,0,0,5.3,4.6c5,4.3,10,8.5,15,12.7,6,5,11.9,10.1,17.9,15.1,1.4,1.2,2.8,2.4,4.3,3.6a1.23,1.23,0,0,1,.5,1V52.8L77.6,29.6v1.1c0,6.3-.1,12.5,0,18.8.3,19.7,0,39.4.2,59.1,0,1-.2,1.3-1.3,1.3-4-.1-7.9-.1-11.9,0-.9,0-1.2-.2-1.2-1.1V86.3c0-1-.2-1.3-1.3-1.3-6.2.1-12.5.1-18.7,0-.9,0-1.1.3-1.1,1.1-.1,23.2.2,46.4.7,69.6v4.7h-.2c-1.9-.7-3.2-2.3-4.7-3.5-3.7-3.1-7.3-6.2-11-9.3-3.1-2.6-6.2-5.3-9.3-7.9s-6-5-8.9-7.5L1,125.5a4.51,4.51,0,0,1-1-1.4Z" style="fill:#fff"/><path d="M292.8,109.8a22.15,22.15,0,0,1-12.5.3c-4-1.2-6.2-4.1-7-8.2a36.79,36.79,0,0,1-.5-5.8V76c0-1.5,0-1.5-1.5-1.5h-3.6c-.9,0-1.2-.2-1.2-1.2.1-2.1,0-4.3,0-6.4,0-.8.3-1.2,1.1-1.2,1.4.1,2.8,0,4.2,0,.8,0,1.1-.3,1.1-1.1V56c0-1,.3-1.3,1.3-1.2,3.1,0,6.2.1,9.3,0,1,0,1.3.4,1.3,1.3v8.4c0,.9.3,1.2,1.2,1.2,1.8-.1,3.6,0,5.4,0,.9,0,1.2.3,1.1,1.2v6.4c0,.9-.3,1.2-1.2,1.2h-5.4c-.8,0-1.1.3-1.1,1.1V97c0,2.9,1.4,4.2,4.3,4.2,1.3,0,2.5-.1,3.8-.2Z" style="fill:#070707"/><path d="M257.2,79.2h-4.8c-.7,0-1-.2-1.1-.9-.6-3.2-2.7-4.9-6-5-2.2-.1-4.3.1-5.9,1.9a4,4,0,0,0,.3,5.7c.1.1.2.2.3.2,2.1,1.4,4.5,1.8,6.9,2.4,3.6.8,7.3,1.6,10.5,3.6a11.32,11.32,0,0,1,5.8,9.3c.4,6.2-3.4,10.5-8.5,12.5-7.1,2.8-14.2,2.8-21-.7a13.89,13.89,0,0,1-7.8-10.1,2.77,2.77,0,0,1-.1-.9c-.1-.9.3-1.3,1.2-1.3,2.9.1,5.8,0,8.7,0,.8,0,1.1.2,1.2,1.1a5,5,0,0,0,2.8,4.2c3.3,1.7,6.8,2,10.1,0a3.9,3.9,0,0,0,1.5-5.3,3.16,3.16,0,0,0-1.4-1.4,16.77,16.77,0,0,0-6.6-2.3,36.33,36.33,0,0,1-10.6-3.8c-8.2-5-6.6-14.9-1.1-19.3,4.7-3.7,10.1-4.6,15.8-4.1a20.44,20.44,0,0,1,6.8,1.6c5.1,2.2,8.3,5.8,8.9,11.4.1.8-.2,1.1-.9,1.1C260.5,79.2,258.8,79.2,257.2,79.2Z" style="fill:#070707"/><path d="M195.9,78.6v29.8c0,1.6,0,1.6-1.6,1.6h-9c-.9,0-1.3-.2-1.3-1.2V48.5c0-1,.3-1.3,1.3-1.3,3.1,0,6.2.1,9.3,0,1,0,1.3.4,1.3,1.3Z" style="fill:#070707"/><path d="M218.3,88v20.4c0,1.6,0,1.6-1.5,1.6h-9.1c-.9,0-1.2-.3-1.2-1.2V67c0-.9.4-1.2,1.2-1.2,3.1,0,6.1.1,9.2,0,1.1,0,1.4.3,1.4,1.4C218.2,74.1,218.3,81.1,218.3,88Z" style="fill:#070707"/><path d="M211.9,60.6a6.17,6.17,0,0,1-3-11.6,5.94,5.94,0,0,1,2.6-.7c2.4-.1,4.7.4,6.2,2.5a6.11,6.11,0,0,1,.4,6.5C217.3,59.3,214.9,60.6,211.9,60.6Z" style="fill:#070707"/><path d="M174,84.6a28.44,28.44,0,0,0-1.9-9.1c-3.4-8.9-11.2-11.8-19-10.1a11.83,11.83,0,0,0-6.2,3.8v-21c0-.8-.2-1-1-1-3.8,0-7.7.1-11.5,0-1,0-1.4.2-1.4,1.3.1,11.7,0,23.4,0,35.1V109c0,.5-.2,1,.8,1,3.6-.1,7.2,0,10.8,0,.7,0,.8-.3.9-.9.1-1.1.3-2.2.4-3.1.6.5,1.3,1,2,1.6,4,3.5,8.7,3.9,13.6,2.7,5.5-1.4,8.8-5.2,10.7-10.4C174.1,95,174.3,89.8,174,84.6ZM159.6,95.3a5.54,5.54,0,0,1-5.1,4.8c-2.8.3-5.4-.2-7.2-2.8a2.2,2.2,0,0,1-.4-1.3V87.9c0-2.4.1-4.7,0-7.1a4.25,4.25,0,0,1,2.6-4.2c4.6-2.5,9.1-.3,10.2,5.1A32.82,32.82,0,0,1,159.6,95.3Z" style="fill:#fff"/><path d="M115.2,66.8a24.4,24.4,0,0,0-12.8-1.7c-7.3.9-12.8,4.4-15.7,11.1a28.7,28.7,0,0,0-.5,22.1,18.27,18.27,0,0,0,11.7,11.3,24.64,24.64,0,0,0,11.1,1,18.94,18.94,0,0,0,13.9-8c3.1-4.4,4.1-9.4,4-15.5a28.15,28.15,0,0,0-.7-6.5C124.7,74.4,121.2,69.5,115.2,66.8Zm-3,28.7a6.91,6.91,0,0,1-8.7,4.4,5.73,5.73,0,0,1-1.9-1,7.69,7.69,0,0,1-2.9-5.4,27.69,27.69,0,0,1,.5-12.8,6.84,6.84,0,0,1,8.4-4.7,7,7,0,0,1,2.3,1.1c2,1.5,2.6,3.8,3,6.1.2,1.6.3,3.2.4,4.8A27.78,27.78,0,0,1,112.2,95.5Z" style="fill:#fff"/></svg>